<?xml version="1.0" encoding="UTF-8"?>
<!DOCTYPE svg PUBLIC "-//W3C//DTD SVG 1.1//EN" "http://www.w3.org/Graphics/SVG/1.1/DTD/svg11.dtd">
<!-- Creator: CorelDRAW -->
<svg xmlns="http://www.w3.org/2000/svg" xml:space="preserve" width="180mm" height="95mm" version="1.1" style="shape-rendering:geometricPrecision; text-rendering:geometricPrecision; image-rendering:optimizeQuality; fill-rule:evenodd; clip-rule:evenodd"
viewBox="0 0 18000 9500"
 xmlns:xlink="http://www.w3.org/1999/xlink"
 xmlns:xodm="http://www.corel.com/coreldraw/odm/2003">
 <defs>
  <style type="text/css">
   <![CDATA[
    .fil4 {fill:#FFCC29}
    .fil2 {fill:#9A7A3C}
    .fil3 {fill:#266E43}
    .fil5 {fill:#00A859}
    .fil0 {fill:#FFCC29;fill-rule:nonzero}
    .fil1 {fill:#00A859;fill-rule:nonzero}
   ]]>
  </style>
 </defs>
 <g id="Capa_x0020_1">
  <metadata id="CorelCorpID_0Corel-Layer"/>
  <g id="_2061780931968">
   <path class="fil0" d="M660.7 7751.46c250.79,1025.89 604.13,1516.02 1162.67,1618.62 319.16,45.59 866.29,11.41 1550.21,-102.6 1071.48,-182.38 1721.21,-524.31 2108.74,-1128.45 228.02,-364.75 330.57,-740.91 273.61,-1139.85 -34.23,-319.16 -125.42,-569.95 -341.98,-946.12 -102.6,-182.37 -205.2,-387.52 -239.38,-478.71 -102.6,-307.8 11.41,-615.55 433.17,-1128.49 410.35,-512.95 547.13,-775.1 638.32,-1219.63 57,-296.39 57,-740.92 0,-991.71 -330.57,-1094.26 -1139.86,-1675.58 -2256.94,-1732.58 -547.13,-34.18 -1288.05,57 -2256.93,284.97 -775.11,182.38 -1048.67,307.75 -1185.45,558.55 -22.82,45.59 -68.42,193.78 -102.6,319.15 -182.38,775.1 -227.97,1914.96 -125.37,3225.83 170.96,2120.1 182.37,2188.52 341.93,2861.02zm4434.09 -5972.89c159.56,45.6 216.56,205.2 113.96,330.57 -45.59,57.01 -102.55,79.78 -159.55,79.78 -68.42,0 -125.37,-34.18 -170.97,-91.19 -91.19,-125.37 68.37,-353.34 216.56,-319.16l0 0zm376.17 45.6c170.96,-56.96 296.33,148.19 170.96,273.56 -34.18,22.83 -79.78,45.6 -114.01,45.6 -56.95,0 -170.96,-102.55 -170.96,-148.15 0,-79.82 45.59,-136.78 114.01,-171.01zm353.34 740.92c-34.18,34.18 -79.78,45.59 -113.96,45.59 -91.24,0 -171.02,-68.37 -171.02,-182.38 0,-102.6 57.01,-159.55 148.2,-159.55 34.18,0 79.77,11.36 125.37,45.59 91.19,56.96 91.19,182.38 11.41,250.75zm-2667.28 79.77c125.37,-56.95 239.38,-91.18 341.98,-91.18 398.93,0 626.9,410.39 341.93,832.1 -57.01,79.83 -148.2,182.38 -227.97,216.61 -91.19,45.59 -182.38,68.37 -284.98,68.37 -170.96,0 -341.93,-68.37 -433.12,-216.56 -159.6,-239.38 -22.82,-661.14 262.16,-809.34zm1960.54 250.8c-45.59,0 -136.78,-79.78 -136.78,-125.38 0,-45.59 91.19,-159.6 136.78,-159.6 57.01,0 136.79,91.19 136.79,148.19 0,57.01 -79.78,136.79 -136.79,136.79zm-1402 4662.06c-57.01,34.18 -114.01,45.6 -170.97,45.6 -136.78,0 -262.2,-68.42 -319.16,-171.02 -79.83,-182.38 11.36,-467.35 182.38,-592.72 56.95,-45.6 136.78,-68.37 205.15,-68.37 68.41,0 148.19,22.77 193.78,68.37 182.38,148.19 125.38,581.36 -91.18,718.14z"/>
   <path class="fil0" d="M11780.61 7375.34c455.94,957.48 1231.1,1584.39 2188.57,1755.35 250.75,45.6 877.7,11.42 1151.27,-56.95 1470.42,-364.75 2484.9,-2006.19 2804.06,-3408.2 68.37,-262.2 68.37,-387.58 68.37,-1037.31 0,-820.69 -57.01,-1242.45 -227.97,-1755.35 -376.17,-1105.67 -1265.23,-2017.6 -2188.52,-2234.16 -296.39,-57 -968.89,-91.19 -1322.23,-45.59 -239.38,22.82 -330.57,57 -592.78,182.37 -843.46,421.76 -1516.01,1333.64 -1937.72,2598.92 -250.79,763.69 -353.39,1493.2 -319.16,2268.3 22.77,695.32 136.78,1231.04 376.11,1732.62zm2678.7 -3271.41c68.41,-34.24 159.6,-68.42 182.37,-68.42 91.19,0 330.57,216.61 421.76,364.75 216.56,364.76 79.78,1003.08 -284.97,1276.69 -113.96,91.19 -319.16,125.37 -433.12,79.78 -193.79,-79.78 -353.4,-364.76 -387.58,-649.73 -34.18,-341.98 216.56,-854.88 501.54,-1003.07zm695.32 3317.01c-34.18,34.18 -68.42,45.59 -102.6,45.59 -68.36,0 -136.78,-57 -136.78,-148.19 0,-45.59 91.19,-125.37 136.78,-125.37 114.01,0 182.38,148.14 102.6,227.97zm-1276.64 -91.19c68.37,-45.59 91.19,-57 159.56,-11.41 102.6,57 125.42,170.97 57,250.74 -34.18,34.24 -91.18,57.01 -125.37,57.01 -91.19,0 -171.01,-68.37 -171.01,-170.97 0,-45.59 34.23,-91.19 79.82,-125.37zm1060.08 752.28c-11.41,57 -45.59,79.78 -91.19,79.78 -148.19,0 -193.78,-136.79 -79.82,-239.34 102.6,-91.18 216.61,0 171.01,159.56zm-672.55 159.6c-45.59,45.6 -159.55,56.96 -193.74,22.78 -34.23,-34.19 -34.23,-148.2 11.36,-193.79 102.6,-102.55 273.57,57 182.38,171.01z"/>
   <path class="fil1" d="M388.57 7367.95c250.79,1025.9 604.14,1516.02 1162.68,1618.62 319.16,45.59 866.29,11.41 1550.2,-102.6 1071.49,-182.38 1721.22,-524.31 2108.74,-1128.44 228.02,-364.76 330.57,-740.92 273.62,-1139.86 -34.24,-319.16 -125.42,-569.95 -341.98,-946.11 -102.6,-182.38 -205.2,-387.53 -239.39,-478.72 -102.6,-307.79 11.41,-615.54 433.17,-1128.49 410.35,-512.95 547.13,-775.1 638.32,-1219.63 57.01,-296.39 57.01,-740.92 0,-991.71 -330.57,-1094.26 -1139.85,-1675.57 -2256.93,-1732.58 -547.13,-34.18 -1288.05,57.01 -2256.94,284.98 -775.1,182.37 -1048.67,307.75 -1185.45,558.54 -22.82,45.59 -68.41,193.79 -102.6,319.16 -182.37,775.1 -227.97,1914.95 -125.37,3225.82 170.97,2120.1 182.38,2188.52 341.93,2861.02zm4434.1 -5972.88c159.55,45.59 216.56,205.2 113.96,330.57 -45.6,57 -102.55,79.78 -159.56,79.78 -68.41,0 -125.37,-34.19 -170.96,-91.19 -91.19,-125.37 68.36,-353.35 216.56,-319.16l0 0zm376.16 45.59c170.97,-56.95 296.34,148.2 170.97,273.57 -34.19,22.82 -79.78,45.59 -114.01,45.59 -56.96,0 -170.97,-102.55 -170.97,-148.14 0,-79.83 45.59,-136.79 114.01,-171.02zm353.34 740.92c-34.18,34.18 -79.77,45.59 -113.96,45.59 -91.24,0 -171.01,-68.36 -171.01,-182.37 0,-102.6 57,-159.56 148.19,-159.56 34.18,0 79.78,11.36 125.37,45.6 91.19,56.95 91.19,182.37 11.41,250.74zm-2667.28 79.78c125.37,-56.96 239.38,-91.19 341.98,-91.19 398.94,0 626.91,410.4 341.93,832.1 -57,79.83 -148.19,182.38 -227.97,216.61 -91.19,45.6 -182.38,68.37 -284.97,68.37 -170.97,0 -341.94,-68.37 -433.12,-216.56 -159.61,-239.38 -22.83,-661.14 262.15,-809.33zm1960.55 250.79c-45.6,0 -136.78,-79.78 -136.78,-125.37 0,-45.6 91.18,-159.61 136.78,-159.61 57,0 136.78,91.19 136.78,148.2 0,57 -79.78,136.78 -136.78,136.78zm-1402.01 4662.06c-57,34.19 -114.01,45.6 -170.97,45.6 -136.78,0 -262.2,-68.42 -319.15,-171.02 -79.83,-182.37 11.36,-467.35 182.37,-592.72 56.96,-45.6 136.78,-68.37 205.15,-68.37 68.42,0 148.19,22.77 193.79,68.37 182.38,148.19 125.37,581.36 -91.19,718.14z"/>
   <path class="fil1" d="M11508.49 6991.84c455.94,957.47 1231.09,1584.38 2188.57,1755.35 250.74,45.59 877.7,11.41 1151.26,-56.96 1470.43,-364.75 2484.91,-2006.19 2804.07,-3408.2 68.36,-262.2 68.36,-387.57 68.36,-1037.3 0,-820.7 -57,-1242.46 -227.97,-1755.35 -376.16,-1105.67 -1265.22,-2017.61 -2188.52,-2234.17 -296.38,-57 -968.89,-91.18 -1322.23,-45.59 -239.38,22.82 -330.57,57 -592.77,182.38 -843.47,421.75 -1516.02,1333.64 -1937.73,2598.91 -250.79,763.69 -353.39,1493.2 -319.16,2268.3 22.77,695.32 136.78,1231.04 376.12,1732.63zm2678.69 -3271.42c68.42,-34.23 159.61,-68.42 182.38,-68.42 91.19,0 330.57,216.61 421.76,364.76 216.56,364.75 79.77,1003.07 -284.98,1276.68 -113.96,91.19 -319.16,125.37 -433.12,79.78 -193.79,-79.78 -353.39,-364.75 -387.57,-649.73 -34.19,-341.98 216.56,-854.88 501.53,-1003.07zm695.32 3317.01c-34.18,34.18 -68.41,45.6 -102.59,45.6 -68.37,0 -136.79,-57.01 -136.79,-148.2 0,-45.59 91.19,-125.37 136.79,-125.37 114.01,0 182.37,148.14 102.59,227.97zm-1276.63 -91.19c68.36,-45.59 91.19,-57 159.55,-11.41 102.6,57.01 125.42,170.97 57.01,250.75 -34.19,34.23 -91.19,57 -125.37,57 -91.19,0 -171.02,-68.37 -171.02,-170.97 0,-45.59 34.23,-91.18 79.83,-125.37zm1060.07 752.28c-11.41,57.01 -45.59,79.78 -91.18,79.78 -148.2,0 -193.79,-136.78 -79.83,-239.33 102.6,-91.19 216.61,0 171.01,159.55zm-672.55 159.61c-45.59,45.59 -159.55,56.95 -193.73,22.77 -34.24,-34.18 -34.24,-148.19 11.36,-193.79 102.6,-102.55 273.56,57.01 182.37,171.02z"/>
   <g>
    <path class="fil2" d="M8488.69 3622.86c-82.09,31.34 -134.23,48.81 -155.11,157.17 -12.09,62.62 -11.81,237.5 3.21,298.7 25.22,102.94 84.79,102.04 201.88,100.95 312.26,-2.95 413.44,49.04 436.11,-173.17 8.69,-85.37 11.57,-220.31 -15.16,-287.64 -51.54,-129.62 -331.82,-149.09 -470.93,-96.01zm938.07 2021.61c-98.44,3.28 -195.12,29.34 -244.53,73.03 -50.64,44.82 -68.63,113.71 -71.66,192.63 96.22,-93.59 203.06,-183.33 316.19,-265.66zm-942.32 14.39c-8.73,2.23 -17.14,4.7 -25.22,7.45 78.98,110.06 151.86,221.98 214.39,327.43 46.81,78.96 125.27,179.72 113.56,276.77l21.34 -0.52c18.85,-28.16 38.41,-55.94 58.67,-83.47 42.7,-58.07 90.69,-115.95 142.98,-173.03 2.78,-78.39 0.14,-168.55 -12.95,-209.48 -50.77,-158.59 -314.15,-195.29 -512.77,-145.15zm-577.1 -4550.6c78.08,51.42 133.72,42.12 167.92,-41.93 18.09,-44.39 64.47,-190.11 46.66,-231.51 -61.12,-142.16 -255.39,32.81 -214.58,273.44zm1355.42 -313.9c-70.42,30.67 -36.18,128.2 -29.19,218.6 6.8,88.37 46.05,184.94 152.33,122.65 121.72,-71.32 -7.93,-391.39 -123.14,-341.25zm-848.03 -125.06c27.68,-73.88 98.62,-232.04 76.37,-319.22 -123.23,-42.97 -191.95,40.79 -228.37,134.61 -69.77,179.62 -12.33,189.64 152,184.61zm449.47 -330.05c-48.93,84.05 11.76,246.24 40.96,325.54 161.11,15.62 226.29,2.04 166.45,-168.85 -33.92,-96.62 -80.91,-186.74 -207.41,-156.69zm905.33 4853.82c-7.36,102.84 0.52,175.68 16.87,227.24 116.52,-61.01 234.84,-111.86 351.18,-149.52l-0.38 -40.07c56.87,-324.39 -359.54,-325.58 -367.67,-37.65zm-1205.59 -4549.37c79.3,2.19 166.5,8.5 221.71,-15 49.22,-131.05 0.85,-332.37 -128.05,-322.3 -144.96,11.3 -152.42,235.6 -93.66,337.3zm-408.72 444.1l214.73 24.16c44.4,-97.05 78.31,-221.02 36.32,-333.08 -221.43,-69.18 -297.43,121.46 -251.05,308.92zm791.26 15.05c100.66,6.55 223.33,34.28 241.13,-52.61 70.48,-344.53 -442.29,-453.69 -241.13,52.61zm-1198.79 603.2c22.53,23.07 81.01,29.44 192.67,-28.63 3.3,-176.63 135.37,-500.41 -98.49,-427.81 -148.26,46.01 -170.18,270.03 -94.18,456.44zm1637.64 -46.58c96.46,34.99 55.5,43.73 166.5,47.43 145.06,-83.66 109.35,-491.9 -163.57,-456.62 -101.5,145.24 -31.31,219.45 -2.93,409.19zm-1743.54 621.24l169.48 -2.7c11.19,-148.43 -11.39,-173.64 23.85,-323.49 26.5,-112.68 -5.53,-210.15 -147.37,-167.52 -135.47,40.69 -235.13,454.02 -45.96,493.71zm858.34 -1190.02c83.13,24.6 245.85,21.42 331.53,1.28 127.01,-435.78 -285.91,-396.7 -335.27,-257.91 -25.12,70.74 -18.09,194.53 3.74,256.63zm-165.61 520.06c155.45,-458.57 -150.34,-459 -251.94,-347.27 -42.28,46.53 -92.67,209.44 -65.94,295.04 32.59,104.51 240.61,87.94 317.88,52.23zm617.02 -373.86c-22.2,152.03 10.48,249.6 8.55,399.03 270.18,-5.56 368.75,77.53 326.38,-240.73 -24.61,-184.47 -180.81,-223.4 -334.93,-158.3zm544.94 1041.59c203.9,9.31 28.15,24.79 208.15,14.72 143.88,-109.54 86.68,-487.06 -85.35,-522.34 -286.19,-58.78 -73.11,390.44 -122.8,507.62zm-2033.33 614.74c78.41,6.6 118.42,10.16 220.73,10.49 12.66,-164.38 159.36,-585.44 -91.45,-538.81 -192.14,35.75 -223.98,374.81 -129.28,528.32zm2146.69 -41.07c42.6,44.01 -1.56,30.05 209.43,51.14 169.76,-77.59 104.91,-483.32 -52.66,-532.98 -121.73,-38.37 -212.84,19.18 -195.03,154.55 8.74,66.66 29.52,305.4 38.26,327.29zm-2159.06 688.43l203.58 13.63c-41.81,-159.16 2.36,-291.21 8.78,-431.47 6.95,-150.8 -145.95,-188.92 -239.19,-121.31 -149.73,108.64 -190.26,490.05 26.83,539.15zm73.64 1192.82c16.29,-124.54 35.75,-285.31 21.68,-339.96 -33.54,-130.2 -223.56,-92.36 -283.69,-37.94 -40.53,36.7 -64.43,97.24 -74.68,165.94 116.01,64.86 228.95,135.47 336.69,211.96zm2147.67 -1208.87c137.5,18.52 19.6,57.21 204.43,26.07 121.01,-12.82 148.08,-149.28 142.31,-265.42 -20.5,-414.75 -381.98,-361.67 -369.74,-144.01 8.5,151.13 28.29,215.61 23,383.36zm-847.47 -1902.38c57.72,-79.53 93.38,-205.31 27.49,-329.05 -47.04,-88.36 -229.6,-126.96 -331.15,-68.75 -69.39,39.79 -116.29,227.58 -70.52,337.21 46.57,111.68 266.68,72.27 374.18,60.59zm-1428.11 2590.67l160.17 0c7.41,-96.34 29.71,-376.43 27.68,-455.25 -5.39,-207.83 -367.29,-239.07 -358.51,210.91 2.88,149.61 26.22,235.89 170.66,244.34zm2341.05 -47.06c159.98,66.43 44.77,40.36 196.3,46.01 253.17,-20.7 176.61,-518.21 32.83,-584.49 -109.07,-50.24 -246.89,10.35 -236.93,143.11 11.67,155.55 7.37,247.9 7.8,395.37zm38.54 648.17c0.66,0.43 28.72,20.84 35.61,24.45 56.21,29.16 183.03,34.05 253.08,30.63 70.05,-98.91 89.51,-167.33 70.52,-334.98 -15.73,-138.89 -61.54,-217.37 -201.45,-217.56 -335.64,-0.38 -95.74,343.86 -157.76,497.46zm-1484.89 -2596.51c11.95,-69.27 39.53,-345.9 16.67,-396.09 -47.14,-103.46 -217.13,-124.02 -321.99,-40.26 -70.57,56.36 -227.29,438.11 55.41,447.89 80.81,2.8 172.64,5.93 249.91,-11.54zm710.25 28.25c232.02,-31.05 356.76,42.78 407.82,-70.32 137.64,-304.78 -233.29,-589 -392.28,-375.1 -49.26,66.24 -13.98,332.13 -15.54,445.42zm-762.49 2914.02c-18.8,-107.6 -61.03,-137.08 -167.87,-160.82 -65.42,-14.53 -156.82,-20.61 -234.04,-13.01 73.07,66.19 140.75,131.66 216.28,203.36 58.67,55.65 117.38,117.8 174.95,183.89 5.2,-70.17 4.96,-145.05 10.68,-213.42zm-390.91 -2324.68l417.41 18.37c13.84,-284.41 103.96,-531.5 -221.95,-515.64 -257.29,12.49 -295.97,301.31 -195.46,497.27zm1196.43 1.28c52.76,39.31 402.58,10.97 426.24,-5.56 93.53,-65.23 60.41,-321.54 -5.29,-407.05 -63.34,-82.52 -267.25,-130.91 -374.7,-31.62 -107.37,99.18 -22.72,282.98 -46.25,444.23zm-524.76 -1080.34c-133.53,40.41 -180.86,198.28 -134.71,354.26 43.17,145.91 238.01,132.14 400.3,120.32 221.95,-16.1 249.87,-630.51 -265.59,-474.58zm-712.19 1731.12c139.95,12.15 301.02,-16.91 426.42,14.43 -6.18,-221.17 143.22,-575.66 -266.77,-547.36 -135.38,9.3 -209.3,71.17 -237.31,201.94 -35.66,166.89 -0.28,217.27 77.66,330.99zm1258.78 6.5c146.66,-23.5 410.18,44.02 487.87,-57.83 90.17,-118.23 38.08,-348.61 -44.58,-422.39 -90.27,-80.53 -326.06,-80.01 -409.33,2.61 -84.6,83.95 -24.33,340.82 -33.96,477.61zm54.84 2061.21c34.38,1.8 449.52,-11.21 454.62,-12.96l2.98 -1.1c14.12,-9.02 28.34,-17.9 42.6,-26.63 53.42,-52.9 51.16,-155.79 49.93,-258.3 -1.37,-116.47 -5.77,-185.32 -83.09,-229.15 -123.75,-70.12 -362.89,-52.51 -459.3,34.71 -94.32,85.33 -48.22,373.21 -7.74,493.43zm-616.97 -3201.9c-83.89,25.64 -124.09,35.99 -146.81,125.21 -32.11,126.35 -42.36,370.74 180.49,372.21 71.03,0.47 225.96,8.45 287.27,0 224.88,-31.01 244.39,-669.92 -320.95,-497.42zm607.99 1821.24c158.8,-1.42 443.01,40.55 515.04,-70.89 83.55,-129.34 29.57,-400.79 -72.32,-463.65 -137.78,-84.99 -403.8,-42.59 -468.27,54.41 -56.31,84.9 4.67,429.94 25.55,480.13zm-908.21 -5.6c40.2,-95.35 83.08,-409.34 1.94,-497.27 -90.5,-98.15 -374.43,-104.89 -474.8,-16 -92.58,81.95 -112.51,322.44 -36.79,453.68 46.38,80.38 98.01,67.52 214.2,65.76 98.53,-1.47 197.96,4.13 295.45,-6.17zm894.94 695.6c117.33,-3.61 469.36,32.19 530.86,-28.59 81.86,-80.95 53.7,-416.41 -35.19,-487.06 -105.9,-84.18 -366.06,-68.13 -455.9,11.35 -112.56,99.57 -50.02,328.47 -39.77,504.3zm-173.21 -1394.29c53.85,-110.44 90.93,-383.74 -19.98,-464.74 -112.41,-82.1 -399.93,-73.65 -499.07,5.27 -101.98,81.14 -105.43,369.07 -20.17,459.71 62.63,66.57 447.73,27.68 539.22,-0.24zm-741.9 1390.25c58.05,-94.87 84.27,-399.74 21.54,-477 -79.5,-97.95 -368.99,-139.64 -485.42,-47.62 -48.23,38.08 -405.03,664.26 463.88,524.62zm338.1 139.64c-100.8,18.76 -144.87,35.04 -176.28,117.14 -32.64,85.28 -31.12,199.75 -15.3,291.25 30.47,176.68 168.39,161.24 478.01,140.35 108.68,-7.31 136.27,-31.57 157.43,-131.66 71.7,-338.45 -54.8,-489.53 -443.86,-417.08zm-24.66 -693.84c-176.6,44.54 -194.17,214.52 -168.67,413.85 24.42,190.97 132.02,155.26 479.47,147.66 109.07,-2.37 147.47,-28.44 164.23,-133.8 10.44,-65.48 15.21,-235.36 -3.68,-294.24 -46.67,-145.77 -288.79,-179.57 -471.35,-133.47z"/>
    <path class="fil3" d="M9877.32 1375.1l216.76 1109.97c0.75,2.14 2.45,6.7 4.11,9.83 71.93,-75.3 145.62,-209.34 192.52,-308.3 42.7,-90.02 109.02,-354.11 134.15,-395.94 3.82,12.91 4.34,-10.92 5.38,37.75 4.87,237.69 -128.62,712.69 -226.01,932.43 -44.69,100.76 -96.88,173.88 -59.19,285.74l38.4 -54.41c202.87,-346.71 331.96,-872.42 391.29,-1259.82 22.81,-148.95 120.63,-939.41 89.51,-1026.64 -57.44,82.38 -77.99,139.41 -149.92,226.54 -210.19,254.64 -389.64,295.42 -637,442.85zm-3062.45 2231.86c84.12,12.77 248.26,-228.91 250.53,-323.44 -36.09,-289.21 -30.75,-227.96 -26.69,-579.61 4.63,-404.06 -141.61,-1037.37 -713.65,-1210.06 443.24,260.34 563.5,666.21 560.52,1095.59 -2.46,349.41 -98.81,716.63 -70.71,1017.52zm1152.93 4930.02c-5.01,-311.01 12.19,-234.47 69.72,-517.22 69.24,-340.34 103.11,-323.68 -95.13,-766.44 -147.75,-330.09 -337.39,-644.98 -590.38,-885.52 -41.37,-39.36 -81.52,-76.3 -129.32,-116.38 -41.1,-34.52 -95.7,-72.55 -132.02,-107.12 215.43,71.61 468.27,284.18 613.99,419.41 79.78,73.92 170.42,181.8 241.32,279.56l209.24 329.71c-25.5,-177.34 -153.46,-508.85 -221.57,-679.07 -83.27,-208.11 -190.45,-433.41 -302.3,-609.57 -203.15,-319.97 -485.28,-681.59 -799.05,-907.22l-63.62 -60.49c220.15,58.83 637.79,390.87 808.78,557.81 314.86,307.25 553.72,686.15 715.21,1107.31 44.36,115.57 66.93,248.71 105.24,352.88 33.49,-36.99 96.78,-197.95 130.22,-262.81 182.52,-353.78 232.35,-225.49 64.81,-507.86 -155.45,-262.05 -393.03,-584.02 -604.12,-784.25 -151.48,-143.82 -107.88,-114.8 -316.28,-290.82 -270.51,-228.57 -616.35,-431.22 -1000.32,-589 -261.25,-107.36 -606.24,-206.54 -939.71,-175.35 144.34,76.73 255.34,70.32 450.14,249.75 388.78,358.2 164.56,822.71 366.39,1324.82 436.86,1086.66 966.87,2194.34 1418.76,2637.87zm1399.25 -946.83c43.98,-97.85 110.81,-197.61 162.49,-302.64 184.59,-375.15 262.29,-589.86 411.03,-992.41 123.84,-335.26 281.98,-655.05 627.17,-775.65 186.57,-65.19 235.69,-31.43 420.76,-55.41 -72.18,-4.46 -206.08,-44.25 -308.58,-48.67 -126.68,-5.5 -251.66,1.95 -362.9,26.17 -498.03,108.16 -1075.37,516.64 -1374.31,922.98 -213.93,290.82 -367.25,644.18 -440.36,1093.87 -38.64,237.46 -50.17,474.58 -45.96,724.61 2.17,129.39 13.27,646.37 44.02,734.3 23.43,32.86 105.85,10.21 145.95,5.18 1239.98,-210.39 2462.87,-1449.75 2123.92,-3217.99 -264.23,798.53 -425.82,1641.71 -1403.23,1885.66zm909.02 -4003.13l34.9 735.91c286.15,-145.49 216.29,-40.55 285.53,-385.12 65.19,-324.68 207.74,-448.75 315.34,-723.05 -101.27,147.91 -337.16,328.9 -635.77,372.26z"/>
   </g>
   <g>
    <path class="fil4" d="M8404.35 3480.87c-82.09,31.34 -134.24,48.81 -155.11,157.16 -12.09,62.63 -11.81,237.51 3.21,298.71 25.22,102.94 84.78,102.04 201.88,100.94 312.26,-2.94 413.43,49.05 436.11,-173.16 8.69,-85.37 11.57,-220.31 -15.17,-287.64 -51.53,-129.63 -331.81,-149.09 -470.92,-96.01zm938.07 2021.61c-98.44,3.27 -195.13,29.34 -244.53,73.02 -50.64,44.83 -68.63,113.72 -71.66,192.64 96.22,-93.59 203.06,-183.33 316.19,-265.66zm-942.32 14.38c-8.74,2.24 -17.14,4.71 -25.22,7.46 78.97,110.06 151.86,221.97 214.39,327.43 46.81,78.96 125.27,179.72 113.55,276.77l21.35 -0.52c18.85,-28.16 38.4,-55.94 58.67,-83.48 42.7,-58.07 90.69,-115.95 142.97,-173.02 2.79,-78.39 0.15,-168.56 -12.94,-209.49 -50.77,-158.58 -314.15,-195.29 -512.77,-145.15zm-577.1 -4550.59c78.08,51.42 133.72,42.11 167.92,-41.93 18.09,-44.39 64.47,-190.11 46.66,-231.52 -61.12,-142.15 -255.39,32.81 -214.58,273.45zm1355.42 -313.9c-70.43,30.67 -36.18,128.2 -29.19,218.6 6.8,88.37 46.05,184.94 152.33,122.65 121.72,-71.32 -7.94,-391.39 -123.14,-341.25zm-848.04 -125.07c27.68,-73.88 98.63,-232.04 76.38,-319.21 -123.23,-42.97 -191.96,40.78 -228.37,134.61 -69.77,179.62 -12.33,189.64 151.99,184.6zm449.48 -330.04c-48.93,84.04 11.76,246.24 40.95,325.53 161.12,15.62 226.3,2.05 166.46,-168.84 -33.92,-96.62 -80.92,-186.74 -207.41,-156.69zm905.33 4853.81c-7.37,102.85 0.52,175.68 16.86,227.25 116.53,-61.01 234.85,-111.87 351.19,-149.52l-0.38 -40.07c56.87,-324.39 -359.54,-325.58 -367.67,-37.66zm-1205.59 -4549.36c79.3,2.19 166.5,8.5 221.71,-15 49.22,-131.05 0.85,-332.37 -128.05,-322.3 -144.96,11.3 -152.42,235.6 -93.66,337.3zm-408.72 444.09l214.73 24.17c44.4,-97.05 78.31,-221.02 36.32,-333.08 -221.43,-69.18 -297.43,121.46 -251.05,308.91zm791.26 15.05c100.66,6.56 223.32,34.29 241.13,-52.6 70.47,-344.53 -442.3,-453.69 -241.13,52.6zm-1198.79 603.21c22.53,23.07 81,29.43 192.67,-28.64 3.3,-176.63 135.37,-500.4 -98.49,-427.8 -148.26,46.01 -170.18,270.02 -94.18,456.44zm1637.64 -46.58c96.45,34.99 55.5,43.73 166.5,47.43 145.06,-83.66 109.35,-491.9 -163.57,-456.63 -101.5,145.25 -31.32,219.46 -2.93,409.2zm-1743.54 621.24l169.48 -2.71c11.19,-148.42 -11.39,-173.63 23.85,-323.48 26.5,-112.68 -5.53,-210.16 -147.37,-167.52 -135.47,40.69 -235.13,454.02 -45.96,493.71zm858.33 -1190.02c83.13,24.6 245.86,21.41 331.54,1.28 127.01,-435.78 -285.91,-396.7 -335.27,-257.92 -25.13,70.75 -18.09,194.53 3.73,256.64zm-165.6 520.06c155.45,-458.57 -150.34,-459 -251.94,-347.28 -42.28,46.54 -92.68,209.44 -65.94,295.05 32.59,104.51 240.61,87.94 317.88,52.23zm617.02 -373.87c-22.2,152.04 10.48,249.61 8.55,399.04 270.17,-5.56 368.75,77.53 326.38,-240.73 -24.61,-184.47 -180.81,-223.4 -334.93,-158.31zm544.93 1041.6c203.91,9.31 28.15,24.78 208.16,14.72 143.88,-109.54 86.68,-487.06 -85.35,-522.34 -286.19,-58.78 -73.12,390.44 -122.81,507.62zm-2033.32 614.74c78.41,6.6 118.42,10.16 220.73,10.49 12.65,-164.38 159.36,-585.44 -91.45,-538.82 -192.15,35.76 -223.98,374.82 -129.28,528.33zm2146.68 -41.07c42.61,44.01 -1.55,30.05 209.44,51.13 169.76,-77.58 104.91,-483.31 -52.67,-532.97 -121.72,-38.37 -212.83,19.18 -195.02,154.55 8.73,66.66 29.52,305.4 38.25,327.29zm-2159.05 688.43l203.58 13.62c-41.81,-159.15 2.36,-291.2 8.78,-431.46 6.94,-150.8 -145.95,-188.93 -239.19,-121.31 -149.73,108.63 -190.26,490.05 26.83,539.15zm73.63 1192.82c16.3,-124.54 35.76,-285.32 21.69,-339.97 -33.54,-130.19 -223.56,-92.35 -283.69,-37.93 -40.53,36.7 -64.43,97.24 -74.68,165.94 116.01,64.86 228.94,135.47 336.68,211.96zm2147.68 -1208.87c137.5,18.52 19.6,57.21 204.43,26.07 121.01,-12.82 148.07,-149.29 142.31,-265.42 -20.5,-414.75 -381.98,-361.67 -369.74,-144.02 8.5,151.14 28.29,215.62 23,383.37zm-847.47 -1902.38c57.72,-79.53 93.38,-205.31 27.49,-329.05 -47.05,-88.36 -229.6,-126.96 -331.16,-68.75 -69.38,39.79 -116.29,227.58 -70.52,337.21 46.58,111.68 266.69,72.27 374.19,60.59zm-1428.11 2590.67l160.17 0c7.41,-96.34 29.71,-376.44 27.67,-455.25 -5.38,-207.83 -367.29,-239.07 -358.5,210.91 2.88,149.61 26.21,235.88 170.66,244.34zm2341.04 -47.06c159.99,66.43 44.78,40.36 196.31,46.01 253.17,-20.7 176.61,-518.21 32.83,-584.49 -109.07,-50.24 -246.9,10.35 -236.93,143.11 11.67,155.54 7.37,247.89 7.79,395.37zm38.55 648.17c0.66,0.42 28.72,20.84 35.61,24.45 56.21,29.15 183.03,34.04 253.08,30.63 70.05,-98.91 89.51,-167.33 70.52,-334.98 -15.73,-138.89 -61.55,-217.37 -201.45,-217.56 -335.65,-0.38 -95.74,343.86 -157.76,497.46zm-1484.89 -2596.51c11.95,-69.28 39.53,-345.9 16.67,-396.09 -47.14,-103.46 -217.13,-124.02 -321.99,-40.26 -70.57,56.36 -227.29,438.11 55.4,447.89 80.82,2.8 172.64,5.93 249.92,-11.54zm710.25 28.25c232.02,-31.05 356.76,42.78 407.82,-70.32 137.64,-304.78 -233.29,-589 -392.28,-375.1 -49.26,66.23 -13.98,332.13 -15.54,445.42zm-762.49 2914.02c-18.8,-107.6 -61.03,-137.08 -167.87,-160.82 -65.42,-14.53 -156.82,-20.61 -234.04,-13.01 73.07,66.19 140.75,131.66 216.28,203.36 58.66,55.65 117.37,117.8 174.95,183.89 5.2,-70.17 4.96,-145.05 10.68,-213.42zm-390.91 -2324.68l417.41 18.37c13.84,-284.41 103.96,-531.5 -221.96,-515.64 -257.28,12.48 -295.96,301.31 -195.45,497.27zm1196.43 1.28c52.76,39.31 402.58,10.97 426.24,-5.56 93.52,-65.24 60.41,-321.54 -5.29,-407.05 -63.34,-82.53 -267.25,-130.91 -374.71,-31.63 -107.36,99.19 -22.71,282.99 -46.24,444.24zm-524.76 -1080.34c-133.53,40.41 -180.86,198.28 -134.72,354.26 43.18,145.91 238.02,132.14 400.31,120.31 221.95,-16.09 249.87,-630.5 -265.59,-474.57zm-712.2 1731.12c139.96,12.15 301.03,-16.91 426.43,14.43 -6.19,-221.17 143.21,-575.66 -266.78,-547.36 -135.37,9.3 -209.29,71.17 -237.3,201.93 -35.66,166.9 -0.28,217.28 77.65,331zm1258.79 6.5c146.66,-23.5 410.17,44.02 487.87,-57.83 90.17,-118.23 38.07,-348.61 -44.59,-422.39 -90.26,-80.53 -326.05,-80.01 -409.32,2.61 -84.6,83.94 -24.33,340.82 -33.96,477.61zm54.83 2061.21c34.39,1.8 449.53,-11.21 454.63,-12.97l2.97 -1.09c14.13,-9.02 28.34,-17.9 42.61,-26.64 53.42,-52.89 51.15,-155.78 49.93,-258.29 -1.37,-116.47 -5.77,-185.32 -83.09,-229.15 -123.75,-70.13 -362.9,-52.51 -459.3,34.71 -94.33,85.33 -48.23,373.2 -7.75,493.43zm-616.96 -3201.9c-83.89,25.64 -124.09,35.99 -146.81,125.21 -32.12,126.35 -42.37,370.73 180.48,372.21 71.04,0.47 225.97,8.45 287.28,0 224.88,-31.01 244.39,-669.92 -320.95,-497.42zm607.99 1821.24c158.8,-1.43 443,40.55 515.04,-70.89 83.55,-129.34 29.56,-400.79 -72.32,-463.66 -137.78,-84.99 -403.8,-42.59 -468.27,54.42 -56.31,84.89 4.67,429.94 25.55,480.13zm-908.21 -5.6c40.19,-95.35 83.08,-409.34 1.93,-497.28 -90.5,-98.14 -374.42,-104.88 -474.79,-16 -92.58,81.96 -112.51,322.45 -36.8,453.69 46.39,80.38 98.01,67.51 214.21,65.76 98.53,-1.47 197.96,4.13 295.45,-6.17zm894.94 695.59c117.33,-3.6 469.36,32.2 530.86,-28.58 81.85,-80.95 53.7,-416.41 -35.19,-487.06 -105.9,-84.19 -366.06,-68.14 -455.9,11.35 -112.56,99.57 -50.02,328.47 -39.77,504.29zm-173.21 -1394.28c53.85,-110.44 90.93,-383.74 -19.98,-464.75 -112.42,-82.09 -399.93,-73.64 -499.07,5.27 -101.98,81.15 -105.43,369.08 -20.17,459.72 62.63,66.57 447.73,27.68 539.22,-0.24zm-741.9 1390.25c58.05,-94.87 84.26,-399.75 21.54,-477 -79.5,-97.95 -368.99,-139.64 -485.42,-47.62 -48.23,38.08 -405.03,664.26 463.88,524.62zm338.1 139.64c-100.8,18.76 -144.87,35.04 -176.28,117.14 -32.64,85.27 -31.13,199.75 -15.3,291.25 30.46,176.67 168.39,161.24 478,140.35 108.69,-7.31 136.27,-31.57 157.43,-131.66 71.71,-338.45 -54.79,-489.54 -443.85,-417.08zm-24.66 -693.84c-176.6,44.54 -194.18,214.52 -168.67,413.84 24.42,190.97 132.02,155.27 479.47,147.67 109.06,-2.37 147.46,-28.44 164.23,-133.8 10.44,-65.48 15.21,-235.37 -3.68,-294.24 -46.67,-145.77 -288.79,-179.58 -471.35,-133.47z"/>
    <path class="fil5" d="M9792.98 1233.11l216.76 1109.97c0.75,2.14 2.45,6.69 4.1,9.83 71.94,-75.31 145.63,-209.35 192.53,-308.3 42.7,-90.02 109.02,-354.11 134.14,-395.94 3.83,12.91 4.35,-10.92 5.39,37.75 4.86,237.69 -128.62,712.69 -226.02,932.43 -44.68,100.76 -96.87,173.88 -59.18,285.74l38.4 -54.41c202.87,-346.71 331.96,-872.42 391.29,-1259.82 22.81,-148.95 120.63,-939.41 89.5,-1026.64 -57.43,82.38 -77.98,139.41 -149.92,226.54 -210.19,254.64 -389.63,295.42 -636.99,442.85zm-3062.45 2231.86c84.12,12.77 248.26,-228.91 250.53,-323.45 -36.09,-289.2 -30.75,-227.95 -26.69,-579.6 4.63,-404.06 -141.61,-1037.37 -713.66,-1210.06 443.25,260.34 563.5,666.21 560.53,1095.58 -2.46,349.42 -98.82,716.64 -70.71,1017.53zm1152.93 4930.01c-5.01,-311 12.18,-234.46 69.72,-517.21 69.24,-340.34 103.11,-323.68 -95.13,-766.44 -147.75,-330.09 -337.39,-644.98 -590.38,-885.52 -41.38,-39.37 -81.52,-76.31 -129.32,-116.38 -41.1,-34.52 -95.7,-72.55 -132.02,-107.12 215.43,71.6 468.27,284.18 613.99,419.4 79.78,73.93 170.42,181.81 241.32,279.57l209.24 329.71c-25.5,-177.34 -153.46,-508.85 -221.57,-679.07 -83.27,-208.11 -190.45,-433.41 -302.3,-609.57 -203.15,-319.97 -485.28,-681.59 -799.05,-907.22l-63.63 -60.49c220.16,58.83 637.8,390.86 808.79,557.81 314.86,307.25 553.72,686.15 715.21,1107.31 44.36,115.57 66.93,248.7 105.24,352.88 33.49,-36.99 96.78,-197.95 130.22,-262.81 182.51,-353.78 232.35,-225.49 64.81,-507.86 -155.45,-262.05 -393.03,-584.02 -604.12,-784.25 -151.48,-143.82 -107.88,-114.81 -316.28,-290.82 -270.51,-228.57 -616.35,-431.22 -1000.32,-589 -261.25,-107.36 -606.24,-206.55 -939.71,-175.35 144.34,76.73 255.34,70.32 450.13,249.75 388.79,358.2 164.57,822.71 366.4,1324.82 436.86,1086.65 966.87,2194.34 1418.76,2637.86zm1399.25 -946.82c43.98,-97.86 110.81,-197.61 162.49,-302.64 184.59,-375.15 262.29,-589.86 411.03,-992.41 123.84,-335.26 281.98,-655.05 627.17,-775.65 186.57,-65.19 235.69,-31.43 420.75,-55.41 -72.17,-4.46 -206.08,-44.25 -308.57,-48.67 -126.68,-5.51 -251.67,1.95 -362.9,26.16 -498.03,108.17 -1075.37,516.65 -1374.32,922.99 -213.92,290.82 -367.24,644.18 -440.36,1093.87 -38.63,237.46 -50.16,474.58 -45.96,724.61 2.18,129.39 13.28,646.36 44.03,734.3 23.42,32.86 105.85,10.21 145.95,5.17 1239.98,-210.38 2462.86,-1449.74 2123.91,-3217.99 -264.22,798.54 -425.81,1641.71 -1403.22,1885.67zm909.02 -4003.14l34.9 735.91c286.15,-145.48 216.29,-40.54 285.53,-385.12 65.18,-324.67 207.74,-448.74 315.33,-723.04 -101.27,147.9 -337.15,328.9 -635.76,372.25z"/>
   </g>
  </g>
 </g>
</svg>
